<svg xmlns="http://www.w3.org/2000/svg" viewBox="0 0 800 600">
  <!-- Space background - darkened teal to complement the palette -->
  <rect width="800" height="600" fill="#0F2D2A"/>
  
  <!-- Stars with a slight teal tint -->
  <g id="stars">
    <circle cx="50" cy="50" r="1.5" fill="#D8F2EE"/>
    <circle cx="150" cy="80" r="1" fill="#D8F2EE"/>
    <circle cx="280" cy="40" r="2" fill="#D8F2EE"/>
    <circle cx="400" cy="90" r="1.5" fill="#D8F2EE"/>
    <circle cx="520" cy="60" r="1" fill="#D8F2EE"/>
    <circle cx="650" cy="30" r="2" fill="#D8F2EE"/>
    <circle cx="750" cy="70" r="1" fill="#D8F2EE"/>
    <circle cx="80" cy="150" r="1.5" fill="#D8F2EE"/>
    <circle cx="200" cy="180" r="1" fill="#D8F2EE"/>
    <circle cx="320" cy="140" r="2" fill="#D8F2EE"/>
    <circle cx="450" cy="190" r="1.5" fill="#D8F2EE"/>
    <circle cx="580" cy="160" r="1" fill="#D8F2EE"/>
    <circle cx="700" cy="130" r="2" fill="#D8F2EE"/>
    <circle cx="100" cy="250" r="1.5" fill="#D8F2EE"/>
    <circle cx="230" cy="280" r="1" fill="#D8F2EE"/>
    <circle cx="360" cy="240" r="2" fill="#D8F2EE"/>
    <circle cx="490" cy="290" r="1.5" fill="#D8F2EE"/>
    <circle cx="620" cy="260" r="1" fill="#D8F2EE"/>
    <circle cx="730" cy="230" r="2" fill="#D8F2EE"/>
    <circle cx="120" cy="350" r="1.5" fill="#D8F2EE"/>
    <circle cx="250" cy="380" r="1" fill="#D8F2EE"/>
    <circle cx="380" cy="340" r="2" fill="#D8F2EE"/>
    <circle cx="510" cy="390" r="1.5" fill="#D8F2EE"/>
    <circle cx="640" cy="360" r="1" fill="#D8F2EE"/>
    <circle cx="760" cy="330" r="2" fill="#D8F2EE"/>
    <circle cx="140" cy="450" r="1.5" fill="#D8F2EE"/>
    <circle cx="270" cy="480" r="1" fill="#D8F2EE"/>
    <circle cx="400" cy="440" r="2" fill="#D8F2EE"/>
    <circle cx="530" cy="490" r="1.5" fill="#D8F2EE"/>
    <circle cx="660" cy="460" r="1" fill="#D8F2EE"/>
    <circle cx="780" cy="430" r="2" fill="#D8F2EE"/>
    <circle cx="160" cy="550" r="1.5" fill="#D8F2EE"/>
    <circle cx="290" cy="580" r="1" fill="#D8F2EE"/>
    <circle cx="420" cy="540" r="2" fill="#D8F2EE"/>
    <circle cx="550" cy="590" r="1.5" fill="#D8F2EE"/>
    <circle cx="680" cy="560" r="1" fill="#D8F2EE"/>
    <circle cx="790" cy="530" r="2" fill="#D8F2EE"/>
  </g>
  
  <!-- Distant Planet in teal tones -->
  <circle cx="700" cy="150" r="40" fill="#297a70"/>
  <circle cx="690" cy="140" r="10" fill="#1A5A52"/>
  <circle cx="720" cy="160" r="12" fill="#1A5A52"/>
  
  <!-- Flying Saucer with teal accents -->
  <g id="flying-saucer">
    <!-- Saucer body -->
    <ellipse cx="400" cy="300" rx="120" ry="30" fill="#5EBFB2"/>
    <!-- Saucer top -->
    <ellipse cx="400" cy="285" rx="60" ry="20" fill="#68CCBF"/>
    <!-- Saucer dome -->
    <ellipse cx="400" cy="275" rx="30" ry="15" fill="#B5E8E0"/>
    <!-- Saucer lights -->
    <circle cx="350" cy="300" r="5" fill="#D8F2EE"/>
    <circle cx="380" cy="305" r="5" fill="#D8F2EE"/>
    <circle cx="420" cy="305" r="5" fill="#D8F2EE"/>
    <circle cx="450" cy="300" r="5" fill="#D8F2EE"/>
    <!-- Beam -->
    <path d="M370 310 L340 400 L460 400 L430 310" fill="rgba(104, 204, 191, 0.4)"/>
  </g>
  
  <!-- Alien in complementary turquoise -->
  <g id="alien">
    <!-- Alien body -->
    <ellipse cx="400" cy="430" rx="15" ry="30" fill="#297a70"/>
    <!-- Alien head -->
    <ellipse cx="400" cy="390" rx="20" ry="25" fill="#297a70"/>
    <!-- Alien eyes -->
    <ellipse cx="390" cy="385" rx="6" ry="10" fill="#0F2D2A"/>
    <ellipse cx="410" cy="385" rx="6" ry="10" fill="#0F2D2A"/>
    <circle cx="390" cy="382" r="2" fill="#B5E8E0"/>
    <circle cx="410" cy="382" r="2" fill="#B5E8E0"/>
    <!-- Alien arms -->
    <path d="M385 430 L370 450" stroke="#297a70" stroke-width="5" stroke-linecap="round"/>
    <path d="M415 430 L430 450" stroke="#297a70" stroke-width="5" stroke-linecap="round"/>
    <!-- Alien legs -->
    <path d="M390 460 L380 480" stroke="#297a70" stroke-width="5" stroke-linecap="round"/>
    <path d="M410 460 L420 480" stroke="#297a70" stroke-width="5" stroke-linecap="round"/>
    <!-- Alien antenna -->
    <path d="M395 365 L390 350" stroke="#297a70" stroke-width="3" stroke-linecap="round"/>
    <path d="M405 365 L410 350" stroke="#297a70" stroke-width="3" stroke-linecap="round"/>
    <circle cx="390" cy="350" r="3" fill="#68CCBF"/>
    <circle cx="410" cy="350" r="3" fill="#68CCBF"/>
  </g>
  
  <!-- Landscape in darker teal -->
  <path d="M0 500 Q 200 450, 400 500 Q 600 550, 800 500 L 800 600 L 0 600 Z" fill="#164741"/>
  <ellipse cx="200" cy="500" rx="50" ry="10" fill="#0F2D2A"/>
  <ellipse cx="600" cy="500" rx="70" ry="15" fill="#0F2D2A"/>
  
  <!-- Small crater -->
  <ellipse cx="350" cy="520" rx="30" ry="10" fill="#0F2D2A"/>
  
  <!-- Alien plants in teal color scheme -->
  <g id="plants">
    <!-- Plant 1 -->
    <path d="M150 500 C 140 470, 130 480, 120 450" stroke="#5EBFB2" stroke-width="3" fill="none"/>
    <circle cx="120" cy="450" r="8" fill="#297a70"/>
    
    <!-- Plant 2 -->
    <path d="M650 500 C 640 470, 630 480, 620 450" stroke="#5EBFB2" stroke-width="3" fill="none"/>
    <circle cx="620" cy="450" r="8" fill="#297a70"/>
    
    <!-- Plant 3 -->
    <path d="M680 500 C 690 460, 700 480, 710 440" stroke="#5EBFB2" stroke-width="3" fill="none"/>
    <circle cx="710" cy="440" r="8" fill="#297a70"/>
  </g>
</svg>
