<svg xmlns="http://www.w3.org/2000/svg" viewBox="0 0 800 600">
  <!-- Background gradient -->
  <defs>
    <linearGradient id="skyGradient" x1="0%" y1="0%" x2="0%" y2="100%">
      <stop offset="0%" stop-color="#0B0B3B" />
      <stop offset="100%" stop-color="#190A37" />
    </linearGradient>
    <radialGradient id="starGlow" cx="50%" cy="50%" r="50%" fx="50%" fy="50%">
      <stop offset="0%" stop-color="white" stop-opacity="0.8" />
      <stop offset="100%" stop-color="white" stop-opacity="0" />
    </radialGradient>
  </defs>
  
  <!-- Main background -->
  <rect width="800" height="600" fill="url(#skyGradient)" />
  
  <!-- Stars (small) -->
  <g id="stars">
    <circle cx="50" cy="80" r="1.2" fill="white" />
    <circle cx="120" cy="60" r="1" fill="white" />
    <circle cx="200" cy="150" r="0.8" fill="white" />
    <circle cx="280" cy="80" r="1" fill="white" />
    <circle cx="330" cy="200" r="1.2" fill="white" />
    <circle cx="400" cy="50" r="1" fill="white" />
    <circle cx="450" cy="120" r="0.8" fill="white" />
    <circle cx="500" cy="180" r="1" fill="white" />
    <circle cx="550" cy="70" r="0.9" fill="white" />
    <circle cx="600" cy="150" r="1.1" fill="white" />
    <circle cx="650" cy="90" r="0.7" fill="white" />
    <circle cx="700" cy="200" r="1" fill="white" />
    <circle cx="750" cy="60" r="0.8" fill="white" />
    <circle cx="100" cy="220" r="1" fill="white" />
    <circle cx="180" cy="280" r="0.7" fill="white" />
    <circle cx="250" cy="320" r="0.9" fill="white" />
    <circle cx="350" cy="280" r="1.2" fill="white" />
    <circle cx="400" cy="350" r="0.8" fill="white" />
    <circle cx="480" cy="300" r="1" fill="white" />
    <circle cx="550" cy="270" r="0.7" fill="white" />
    <circle cx="600" cy="330" r="0.9" fill="white" />
    <circle cx="680" cy="290" r="1.1" fill="white" />
    <circle cx="730" cy="350" r="0.8" fill="white" />
    <circle cx="150" cy="400" r="1" fill="white" />
    <circle cx="220" cy="450" r="0.9" fill="white" />
    <circle cx="300" cy="420" r="0.7" fill="white" />
    <circle cx="380" cy="470" r="1.1" fill="white" />
    <circle cx="450" cy="430" r="0.8" fill="white" />
    <circle cx="520" cy="480" r="1" fill="white" />
    <circle cx="600" cy="440" r="0.7" fill="white" />
    <circle cx="670" cy="490" r="0.9" fill="white" />
    <circle cx="730" cy="420" r="1.1" fill="white" />
    <circle cx="80" cy="520" r="0.8" fill="white" />
    <circle cx="170" cy="550" r="1" fill="white" />
    <circle cx="250" cy="530" r="0.7" fill="white" />
    <circle cx="330" cy="570" r="0.9" fill="white" />
    <circle cx="420" cy="540" r="1.1" fill="white" />
    <circle cx="500" cy="520" r="0.8" fill="white" />
    <circle cx="580" cy="560" r="1" fill="white" />
    <circle cx="660" cy="530" r="0.7" fill="white" />
    <circle cx="740" cy="550" r="0.9" fill="white" />
  </g>
  
  <!-- Larger, glowing stars -->
  <g id="glowingStars">
    <circle cx="150" cy="100" r="2" fill="white" />
    <circle cx="150" cy="100" r="6" fill="url(#starGlow)" />
    
    <circle cx="350" cy="70" r="2.5" fill="white" />
    <circle cx="350" cy="70" r="7.5" fill="url(#starGlow)" />
    
    <circle cx="600" cy="120" r="2" fill="white" />
    <circle cx="600" cy="120" r="6" fill="url(#starGlow)" />
    
    <circle cx="250" cy="250" r="2.5" fill="white" />
    <circle cx="250" cy="250" r="7.5" fill="url(#starGlow)" />
    
    <circle cx="500" cy="220" r="2" fill="white" />
    <circle cx="500" cy="220" r="6" fill="url(#starGlow)" />
    
    <circle cx="700" cy="300" r="2.5" fill="white" />
    <circle cx="700" cy="300" r="7.5" fill="url(#starGlow)" />
    
    <circle cx="150" cy="450" r="2" fill="white" />
    <circle cx="150" cy="450" r="6" fill="url(#starGlow)" />
    
    <circle cx="420" cy="400" r="2.5" fill="white" />
    <circle cx="420" cy="400" r="7.5" fill="url(#starGlow)" />
    
    <circle cx="650" cy="450" r="2" fill="white" />
    <circle cx="650" cy="450" r="6" fill="url(#starGlow)" />
  </g>
  
  <!-- Zodiac constellations -->
  <!-- Simplified Aries constellation -->
  <g id="aries" stroke="rgba(255,255,255,0.5)" stroke-width="0.5">
    <circle cx="120" cy="180" r="1.5" fill="white" />
    <circle cx="140" cy="190" r="1.5" fill="white" />
    <circle cx="160" cy="195" r="1.5" fill="white" />
    <line x1="120" y1="180" x2="140" y2="190" />
    <line x1="140" y1="190" x2="160" y2="195" />
  </g>
  
  <!-- Simplified Gemini constellation -->
  <g id="gemini" stroke="rgba(255,255,255,0.5)" stroke-width="0.5">
    <circle cx="300" cy="150" r="1.5" fill="white" />
    <circle cx="310" cy="170" r="1.5" fill="white" />
    <circle cx="320" cy="190" r="1.5" fill="white" />
    <circle cx="335" cy="160" r="1.5" fill="white" />
    <circle cx="345" cy="180" r="1.5" fill="white" />
    <line x1="300" y1="150" x2="310" y2="170" />
    <line x1="310" y1="170" x2="320" y2="190" />
    <line x1="335" y1="160" x2="345" y2="180" />
    <line x1="310" y1="170" x2="335" y2="160" />
  </g>
  
  <!-- Simplified Leo constellation -->
  <g id="leo" stroke="rgba(255,255,255,0.5)" stroke-width="0.5">
    <circle cx="550" cy="160" r="1.5" fill="white" />
    <circle cx="565" cy="175" r="1.5" fill="white" />
    <circle cx="580" cy="190" r="1.5" fill="white" />
    <circle cx="595" cy="175" r="1.5" fill="white" />
    <circle cx="610" cy="185" r="1.5" fill="white" />
    <line x1="550" y1="160" x2="565" y2="175" />
    <line x1="565" y1="175" x2="580" y2="190" />
    <line x1="580" y1="190" x2="595" y2="175" />
    <line x1="595" y1="175" x2="610" y2="185" />
  </g>
  
  <!-- Moon with subtle glow -->
  <g id="moon">
    <circle cx="650" cy="100" r="30" fill="#FFFAE0" />
    <circle cx="650" cy="100" r="40" fill="url(#starGlow)" />
    <circle cx="635" cy="90" r="8" fill="#E0E0C0" fill-opacity="0.5" />
    <circle cx="670" cy="110" r="5" fill="#E0E0C0" fill-opacity="0.5" />
    <circle cx="645" cy="115" r="7" fill="#E0E0C0" fill-opacity="0.5" />
  </g>
  
  <!-- Simplified planet shapes -->
  <circle cx="200" cy="350" r="15" fill="#E8C891" stroke="#F8D8A1" stroke-width="1" /> <!-- Jupiter-like -->
  <g id="saturn">
    <circle cx="500" cy="380" r="12" fill="#EAD6A6" /> <!-- Saturn-like -->
    <ellipse cx="500" cy="380" rx="20" ry="5" fill="none" stroke="#EAD6A6" stroke-width="1" transform="rotate(20, 500, 380)" />
  </g>
</svg>
