<svg xmlns="http://www.w3.org/2000/svg" viewBox="0 0 100 100">
  <!-- Deep space background with gradient -->
  <defs>
    <radialGradient id="spaceGrad1" cx="50%" cy="50%" r="70%">
      <stop offset="0%" stop-color="#0A0E2A"/>
      <stop offset="100%" stop-color="#000000"/>
    </radialGradient>
    
    <!-- Main nebula glow -->
    <radialGradient id="nebulaGlow1" cx="50%" cy="50%" r="60%" fx="45%" fy="40%">
      <stop offset="0%" stop-color="#9D54F7" stop-opacity="0.9"/>
      <stop offset="40%" stop-color="#6A0DAD" stop-opacity="0.7"/>
      <stop offset="70%" stop-color="#4B0082" stop-opacity="0.4"/>
      <stop offset="100%" stop-color="#000000" stop-opacity="0"/>
    </radialGradient>
    
    <!-- Secondary nebula glow -->
    <radialGradient id="nebulaGlow1b" cx="65%" cy="65%" r="40%" fx="60%" fy="60%">
      <stop offset="0%" stop-color="#C77DFF" stop-opacity="0.8"/>
      <stop offset="60%" stop-color="#9D54F7" stop-opacity="0.5"/>
      <stop offset="100%" stop-color="#4B0082" stop-opacity="0"/>
    </radialGradient>
    
    <!-- Star filter -->
    <filter id="starGlow1" x="-50%" y="-50%" width="200%" height="200%">
      <feGaussianBlur in="SourceGraphic" stdDeviation="0.3" result="blur"/>
      <feColorMatrix in="blur" type="matrix" values="1 0 0 0 0.1 0 1 0 0 0.1 0 0 1 0 0.3 0 0 0 1 0" result="glow"/>
      <feBlend in="SourceGraphic" in2="glow" mode="normal"/>
    </filter>
  </defs>
  
  <!-- Background -->
  <rect width="100" height="100" fill="url(#spaceGrad1)"/>
  
  <!-- Dust and gas clouds -->
  <path d="M10,40 Q30,20 50,30 T90,50 Q70,80 40,75 T10,40" fill="#574089" opacity="0.2"/>
  <path d="M25,45 Q45,25 65,35 T85,60 Q70,70 50,65 T25,45" fill="#8B5CF6" opacity="0.3"/>
  <path d="M30,50 Q50,30 70,40 T90,65 Q75,75 55,70 T30,50" fill="#A78BFA" opacity="0.2"/>
  
  <!-- Main nebula glow -->
  <circle cx="50" cy="50" r="42" fill="url(#nebulaGlow1)"/>
  
  <!-- Secondary nebula feature -->
  <circle cx="65" cy="65" r="25" fill="url(#nebulaGlow1b)"/>
  
  <!-- Cluster of small stars (background) -->
  <g opacity="0.6">
    <circle cx="12" cy="15" r="0.5" fill="white"/>
    <circle cx="25" cy="12" r="0.4" fill="white"/>
    <circle cx="85" cy="18" r="0.3" fill="white"/>
    <circle cx="92" cy="32" r="0.4" fill="white"/>
    <circle cx="88" cy="85" r="0.5" fill="white"/>
    <circle cx="72" cy="92" r="0.3" fill="white"/>
    <circle cx="15" cy="82" r="0.4" fill="white"/>
    <circle cx="8" cy="65" r="0.5" fill="white"/>
  </g>
  
  <!-- Brighter stars with glow effect -->
  <g filter="url(#starGlow1)">
    <circle cx="20" cy="25" r="0.8" fill="white"/>
    <circle cx="80" cy="30" r="1" fill="white"/>
    <circle cx="65" cy="80" r="0.9" fill="white"/>
    <circle cx="25" cy="70" r="0.8" fill="white"/>
    <circle cx="50" cy="40" r="1.2" fill="white"/>
    <circle cx="35" cy="50" r="0.7" fill="white"/>
    <circle cx="75" cy="55" r="1" fill="white"/>
  </g>
  
  <!-- Brightest stars with cross flare -->
  <g>
    <circle cx="38" cy="22" r="1.3" fill="white"/>
    <line x1="38" y1="18" x2="38" y2="26" stroke="white" stroke-width="0.3" opacity="0.7"/>
    <line x1="34" y1="22" x2="42" y2="22" stroke="white" stroke-width="0.3" opacity="0.7"/>
    
    <circle cx="78" cy="68" r="1.2" fill="white"/>
    <line x1="78" y1="64" x2="78" y2="72" stroke="white" stroke-width="0.3" opacity="0.7"/>
    <line x1="74" y1="68" x2="82" y2="68" stroke="white" stroke-width="0.3" opacity="0.7"/>
  </g>
</svg>
