<svg xmlns="http://www.w3.org/2000/svg" viewBox="0 0 100 100">
  <!-- Deep space background with gradient -->
  <defs>
    <radialGradient id="spaceGrad2" cx="50%" cy="50%" r="70%">
      <stop offset="0%" stop-color="#0A0A0A"/>
      <stop offset="100%" stop-color="#000000"/>
    </radialGradient>
    
    <!-- Main nebula glow -->
    <radialGradient id="nebulaGlow2" cx="45%" cy="45%" r="60%" fx="40%" fy="40%">
      <stop offset="0%" stop-color="#FF6347" stop-opacity="1"/>
      <stop offset="40%" stop-color="#FF4500" stop-opacity="0.8"/>
      <stop offset="70%" stop-color="#B22222" stop-opacity="0.5"/>
      <stop offset="100%" stop-color="#000000" stop-opacity="0"/>
    </radialGradient>
    
    <!-- Secondary nebula glow -->
    <radialGradient id="nebulaGlow2b" cx="25%" cy="70%" r="30%" fx="25%" fy="70%">
      <stop offset="0%" stop-color="#FFA07A" stop-opacity="0.8"/>
      <stop offset="60%" stop-color="#FF6347" stop-opacity="0.5"/>
      <stop offset="100%" stop-color="#8B0000" stop-opacity="0"/>
    </radialGradient>
    
    <!-- Star filter -->
    <filter id="starGlow2" x="-50%" y="-50%" width="200%" height="200%">
      <feGaussianBlur in="SourceGraphic" stdDeviation="0.3" result="blur"/>
      <feColorMatrix in="blur" type="matrix" values="1 0 0 0 0.3 0 1 0 0 0.1 0 0 1 0 0.1 0 0 0 1 0" result="glow"/>
      <feBlend in="SourceGraphic" in2="glow" mode="normal"/>
    </filter>
  </defs>
  
  <!-- Background -->
  <rect width="100" height="100" fill="url(#spaceGrad2)"/>
  
  <!-- Dust and gas clouds -->
  <path d="M15,45 Q35,25 55,35 T85,55 Q75,75 45,70 T15,45" fill="#8B0000" opacity="0.2"/>
  <path d="M20,50 Q40,30 60,40 T90,60 Q80,80 50,75 T20,50" fill="#CD5C5C" opacity="0.3"/>
  <path d="M25,40 Q45,20 65,30 T95,50 Q85,70 55,65 T25,40" fill="#FA8072" opacity="0.2"/>
  
  <!-- Main nebula glow -->
  <circle cx="45" cy="45" r="38" fill="url(#nebulaGlow2)"/>
  
  <!-- Secondary nebula feature -->
  <circle cx="25" cy="70" r="25" fill="url(#nebulaGlow2b)"/>
  
  <!-- Dark dust lanes -->
  <path d="M20,40 Q40,55 70,45 T95,60" stroke="#000000" stroke-width="3" opacity="0.5" fill="none"/>
  <path d="M30,35 Q50,45 75,40" stroke="#000000" stroke-width="2" opacity="0.4" fill="none"/>
  
  <!-- Cluster of small stars (background) -->
  <g opacity="0.6">
    <circle cx="15" cy="12" r="0.5" fill="white"/>
    <circle cx="28" cy="15" r="0.4" fill="white"/>
    <circle cx="88" cy="15" r="0.3" fill="white"/>
    <circle cx="95" cy="35" r="0.4" fill="white"/>
    <circle cx="85" cy="88" r="0.5" fill="white"/>
    <circle cx="75" cy="95" r="0.3" fill="white"/>
    <circle cx="12" cy="85" r="0.4" fill="white"/>
    <circle cx="5" cy="68" r="0.5" fill="white"/>
  </g>
  
  <!-- Brighter stars with glow effect -->
  <g filter="url(#starGlow2)">
    <circle cx="25" cy="20" r="0.8" fill="white"/>
    <circle cx="75" cy="25" r="1" fill="white"/>
    <circle cx="70" cy="75" r="0.9" fill="white"/>
    <circle cx="30" cy="75" r="0.8" fill="white"/>
    <circle cx="55" cy="35" r="1.2" fill="white"/>
    <circle cx="40" cy="55" r="0.7" fill="white"/>
    <circle cx="70" cy="60" r="1" fill="white"/>
  </g>
  
  <!-- Brightest stars with cross flare -->
  <g>
    <circle cx="33" cy="28" r="1.3" fill="white"/>
    <line x1="33" y1="24" x2="33" y2="32" stroke="white" stroke-width="0.3" opacity="0.7"/>
    <line x1="29" y1="28" x2="37" y2="28" stroke="white" stroke-width="0.3" opacity="0.7"/>
    
    <circle cx="72" cy="72" r="1.2" fill="white"/>
    <line x1="72" y1="68" x2="72" y2="76" stroke="white" stroke-width="0.3" opacity="0.7"/>
    <line x1="68" y1="72" x2="76" y2="72" stroke="white" stroke-width="0.3" opacity="0.7"/>
  </g>
</svg>
