<svg xmlns="http://www.w3.org/2000/svg" viewBox="0 0 100 100">
  <!-- Deep space background with gradient -->
  <defs>
    <radialGradient id="spaceGrad6" cx="50%" cy="50%" r="70%">
      <stop offset="0%" stop-color="#0F0C00"/>
      <stop offset="100%" stop-color="#000000"/>
    </radialGradient>
    
    <!-- Main nebula glow -->
    <radialGradient id="nebulaGlow6" cx="60%" cy="40%" r="60%" fx="55%" fy="35%">
      <stop offset="0%" stop-color="#FFD700" stop-opacity="0.9"/>
      <stop offset="40%" stop-color="#FFA500" stop-opacity="0.7"/>
      <stop offset="70%" stop-color="#B8860B" stop-opacity="0.4"/>
      <stop offset="100%" stop-color="#000000" stop-opacity="0"/>
    </radialGradient>
    
    <!-- Secondary nebula glow -->
    <radialGradient id="nebulaGlow6b" cx="35%" cy="70%" r="35%" fx="30%" fy="65%">
      <stop offset="0%" stop-color="#FFFF00" stop-opacity="0.8"/>
      <stop offset="60%" stop-color="#FFD700" stop-opacity="0.5"/>
      <stop offset="100%" stop-color="#B8860B" stop-opacity="0"/>
    </radialGradient>
    
    <!-- Star filter -->
    <filter id="starGlow6" x="-50%" y="-50%" width="200%" height="200%">
      <feGaussianBlur in="SourceGraphic" stdDeviation="0.3" result="blur"/>
      <feColorMatrix in="blur" type="matrix" values="1 0 0 0 0.4 0 1 0 0 0.3 0 0 1 0 0.1 0 0 0 1 0" result="glow"/>
      <feBlend in="SourceGraphic" in2="glow" mode="normal"/>
    </filter>
  </defs>
  
  <!-- Background -->
  <rect width="100" height="100" fill="url(#spaceGrad6)"/>
  
  <!-- Dust and gas clouds -->
  <path d="M25,40 Q45,20 65,30 T95,50 Q85,70 55,65 T25,40" fill="#B8860B" opacity="0.2"/>
  <path d="M20,45 Q40,25 60,35 T90,55 Q80,75 50,70 T20,45" fill="#DAA520" opacity="0.3"/>
  <path d="M30,35 Q50,15 70,25 T100,45 Q90,65 60,60 T30,35" fill="#FFD700" opacity="0.2"/>
  
  <!-- Main nebula glow -->
  <circle cx="60" cy="40" r="36" fill="url(#nebulaGlow6)"/>
  
  <!-- Secondary nebula feature -->
  <circle cx="35" cy="70" r="28" fill="url(#nebulaGlow6b)"/>
  
  <!-- Nebula structures -->
  <path d="M50,30 C65,25 75,35 85,30" stroke="#FFD700" stroke-width="1.5" opacity="0.7" fill="none"/>
  <path d="M30,65 C40,75 55,70 65,80" stroke="#FFD700" stroke-width="1.5" opacity="0.7" fill="none"/>
  
  <!-- Dark dust lane -->
  <path d="M40,45 Q60,55 80,45" stroke="#332200" stroke-width="3" opacity="0.3" fill="none"/>
  <path d="M25,65 Q40,75 55,70" stroke="#332200" stroke-width="2" opacity="0.3" fill="none"/>
  
  <!-- Cluster of small stars (background) -->
  <g opacity="0.6">
    <circle cx="15" cy="15" r="0.5" fill="white"/>
    <circle cx="28" cy="12" r="0.4" fill="white"/>
    <circle cx="85" cy="18" r="0.3" fill="white"/>
    <circle cx="92" cy="32" r="0.4" fill="white"/>
    <circle cx="88" cy="85" r="0.5" fill="white"/>
    <circle cx="75" cy="92" r="0.3" fill="white"/>
    <circle cx="18" cy="88" r="0.4" fill="white"/>
    <circle cx="12" cy="65" r="0.5" fill="white"/>
  </g>
  
  <!-- Brighter stars with glow effect -->
  <g filter="url(#starGlow6)">
    <circle cx="25" cy="25" r="0.8" fill="white"/>
    <circle cx="80" cy="20" r="1" fill="white"/>
    <circle cx="70" cy="85" r="0.9" fill="white"/>
    <circle cx="20" cy="75" r="0.8" fill="white"/>
    <circle cx="45" cy="35" r="1.2" fill="white"/>
    <circle cx="55" cy="55" r="0.7" fill="white"/>
    <circle cx="70" cy="65" r="1" fill="white"/>
  </g>
  
  <!-- Brightest stars with cross flare -->
  <g>
    <circle cx="35" cy="30" r="1.3" fill="white"/>
    <line x1="35" y1="26" x2="35" y2="34" stroke="white" stroke-width="0.3" opacity="0.7"/>
    <line x1="31" y1="30" x2="39" y2="30" stroke="white" stroke-width="0.3" opacity="0.7"/>
    
    <circle cx="65" cy="78" r="1.2" fill="white"/>
    <line x1="65" y1="74" x2="65" y2="82" stroke="white" stroke-width="0.3" opacity="0.7"/>
    <line x1="61" y1="78" x2="69" y2="78" stroke="white" stroke-width="0.3" opacity="0.7"/>
  </g>
</svg>
