<svg xmlns="http://www.w3.org/2000/svg" viewBox="0 0 100 100">
  <!-- Deep space background with gradient -->
  <defs>
    <radialGradient id="spaceGrad5" cx="50%" cy="50%" r="70%">
      <stop offset="0%" stop-color="#0D0913"/>
      <stop offset="100%" stop-color="#000000"/>
    </radialGradient>
    
    <!-- Main nebula glow -->
    <radialGradient id="nebulaGlow5" cx="45%" cy="55%" r="60%" fx="40%" fy="50%">
      <stop offset="0%" stop-color="#FF00FF" stop-opacity="0.9"/>
      <stop offset="40%" stop-color="#DA70D6" stop-opacity="0.7"/>
      <stop offset="70%" stop-color="#8B008B" stop-opacity="0.4"/>
      <stop offset="100%" stop-color="#000000" stop-opacity="0"/>
    </radialGradient>
    
    <!-- Secondary nebula glow -->
    <radialGradient id="nebulaGlow5b" cx="70%" cy="30%" r="35%" fx="65%" fy="25%">
      <stop offset="0%" stop-color="#EE82EE" stop-opacity="0.8"/>
      <stop offset="60%" stop-color="#DA70D6" stop-opacity="0.5"/>
      <stop offset="100%" stop-color="#8B008B" stop-opacity="0"/>
    </radialGradient>
    
    <!-- Star filter -->
    <filter id="starGlow5" x="-50%" y="-50%" width="200%" height="200%">
      <feGaussianBlur in="SourceGraphic" stdDeviation="0.3" result="blur"/>
      <feColorMatrix in="blur" type="matrix" values="1 0 0 0 0.3 0 1 0 0 0.1 0 0 1 0 0.3 0 0 0 1 0" result="glow"/>
      <feBlend in="SourceGraphic" in2="glow" mode="normal"/>
    </filter>
  </defs>
  
  <!-- Background -->
  <rect width="100" height="100" fill="url(#spaceGrad5)"/>
  
  <!-- Dust and gas clouds -->
  <path d="M15,55 Q35,35 55,45 T95,65 Q80,85 50,80 T15,55" fill="#8B008B" opacity="0.2"/>
  <path d="M20,50 Q40,30 60,40 T100,60 Q85,80 55,75 T20,50" fill="#DA70D6" opacity="0.3"/>
  <path d="M25,45 Q45,25 65,35 T105,55 Q90,75 60,70 T25,45" fill="#EE82EE" opacity="0.2"/>
  
  <!-- Main nebula glow -->
  <circle cx="45" cy="55" r="36" fill="url(#nebulaGlow5)"/>
  
  <!-- Secondary nebula feature -->
  <circle cx="70" cy="30" r="25" fill="url(#nebulaGlow5b)"/>
  
  <!-- Nebula structures and tendrils -->
  <path d="M35,45 C50,40 60,50 80,45" stroke="#EE82EE" stroke-width="1.5" opacity="0.6" fill="none"/>
  <path d="M40,65 C55,60 65,70 75,65" stroke="#EE82EE" stroke-width="1.5" opacity="0.6" fill="none"/>
  <path d="M60,25 C70,20 75,30 85,25" stroke="#EE82EE" stroke-width="1.5" opacity="0.6" fill="none"/>
  
  <!-- Dust lanes -->
  <path d="M30,50 Q50,65 70,55" stroke="#330033" stroke-width="3" opacity="0.3" fill="none"/>
  <path d="M65,30 Q75,40 85,35" stroke="#330033" stroke-width="2" opacity="0.3" fill="none"/>
  
  <!-- Cluster of small stars (background) -->
  <g opacity="0.6">
    <circle cx="10" cy="10" r="0.5" fill="white"/>
    <circle cx="25" cy="15" r="0.4" fill="white"/>
    <circle cx="90" cy="12" r="0.3" fill="white"/>
    <circle cx="92" cy="28" r="0.4" fill="white"/>
    <circle cx="85" cy="88" r="0.5" fill="white"/>
    <circle cx="70" cy="92" r="0.3" fill="white"/>
    <circle cx="12" cy="88" r="0.4" fill="white"/>
    <circle cx="8" cy="72" r="0.5" fill="white"/>
  </g>
  
  <!-- Brighter stars with glow effect -->
  <g filter="url(#starGlow5)">
    <circle cx="20" cy="22" r="0.8" fill="white"/>
    <circle cx="82" cy="18" r="1" fill="white"/>
    <circle cx="75" cy="80" r="0.9" fill="white"/>
    <circle cx="25" cy="75" r="0.8" fill="white"/>
    <circle cx="55" cy="30" r="1.2" fill="white"/>
    <circle cx="35" cy="60" r="0.7" fill="white"/>
    <circle cx="65" cy="55" r="1" fill="white"/>
  </g>
  
  <!-- Brightest stars with cross flare -->
  <g>
    <circle cx="32" cy="28" r="1.3" fill="white"/>
    <line x1="32" y1="24" x2="32" y2="32" stroke="white" stroke-width="0.3" opacity="0.7"/>
    <line x1="28" y1="28" x2="36" y2="28" stroke="white" stroke-width="0.3" opacity="0.7"/>
    
    <circle cx="78" cy="72" r="1.2" fill="white"/>
    <line x1="78" y1="68" x2="78" y2="76" stroke="white" stroke-width="0.3" opacity="0.7"/>
    <line x1="74" y1="72" x2="82" y2="72" stroke="white" stroke-width="0.3" opacity="0.7"/>
  </g>
</svg>
