<svg xmlns="http://www.w3.org/2000/svg" viewBox="0 0 100 100">
  <!-- Deep space background with gradient -->
  <defs>
    <radialGradient id="spaceGrad3" cx="50%" cy="50%" r="70%">
      <stop offset="0%" stop-color="#040B1C"/>
      <stop offset="100%" stop-color="#000000"/>
    </radialGradient>
    
    <!-- Main nebula glow -->
    <radialGradient id="nebulaGlow3" cx="40%" cy="60%" r="60%" fx="35%" fy="55%">
      <stop offset="0%" stop-color="#00BFFF" stop-opacity="0.9"/>
      <stop offset="40%" stop-color="#1E90FF" stop-opacity="0.7"/>
      <stop offset="70%" stop-color="#0000CD" stop-opacity="0.4"/>
      <stop offset="100%" stop-color="#000000" stop-opacity="0"/>
    </radialGradient>
    
    <!-- Secondary nebula glow -->
    <radialGradient id="nebulaGlow3b" cx="65%" cy="35%" r="35%" fx="60%" fy="30%">
      <stop offset="0%" stop-color="#87CEFA" stop-opacity="0.8"/>
      <stop offset="60%" stop-color="#1E90FF" stop-opacity="0.5"/>
      <stop offset="100%" stop-color="#0000CD" stop-opacity="0"/>
    </radialGradient>
    
    <!-- Star filter -->
    <filter id="starGlow3" x="-50%" y="-50%" width="200%" height="200%">
      <feGaussianBlur in="SourceGraphic" stdDeviation="0.3" result="blur"/>
      <feColorMatrix in="blur" type="matrix" values="1 0 0 0 0.1 0 1 0 0 0.3 0 0 1 0 0.5 0 0 0 1 0" result="glow"/>
      <feBlend in="SourceGraphic" in2="glow" mode="normal"/>
    </filter>
  </defs>
  
  <!-- Background -->
  <rect width="100" height="100" fill="url(#spaceGrad3)"/>
  
  <!-- Dust and gas clouds -->
  <path d="M10,60 Q30,40 50,50 T90,70 Q75,90 45,85 T10,60" fill="#4169E1" opacity="0.2"/>
  <path d="M15,55 Q35,35 55,45 T95,65 Q80,85 50,80 T15,55" fill="#6495ED" opacity="0.3"/>
  <path d="M20,50 Q40,30 60,40 T100,60 Q85,80 55,75 T20,50" fill="#87CEFA" opacity="0.2"/>
  
  <!-- Main nebula glow -->
  <circle cx="40" cy="60" r="35" fill="url(#nebulaGlow3)"/>
  
  <!-- Secondary nebula feature -->
  <circle cx="65" cy="35" r="28" fill="url(#nebulaGlow3b)"/>
  
  <!-- Wisps and tendrils -->
  <path d="M25,65 Q45,55 60,65 T80,55" stroke="#87CEFA" stroke-width="1" opacity="0.6" fill="none"/>
  <path d="M30,70 Q55,65 70,75" stroke="#87CEFA" stroke-width="1.5" opacity="0.5" fill="none"/>
  <path d="M60,30 Q70,40 80,30" stroke="#87CEFA" stroke-width="1" opacity="0.6" fill="none"/>
  
  <!-- Cluster of small stars (background) -->
  <g opacity="0.6">
    <circle cx="10" cy="15" r="0.5" fill="white"/>
    <circle cx="25" cy="8" r="0.4" fill="white"/>
    <circle cx="85" cy="12" r="0.3" fill="white"/>
    <circle cx="92" cy="28" r="0.4" fill="white"/>
    <circle cx="88" cy="90" r="0.5" fill="white"/>
    <circle cx="75" cy="95" r="0.3" fill="white"/>
    <circle cx="15" cy="85" r="0.4" fill="white"/>
    <circle cx="5" cy="65" r="0.5" fill="white"/>
  </g>
  
  <!-- Brighter stars with glow effect -->
  <g filter="url(#starGlow3)">
    <circle cx="20" cy="25" r="0.8" fill="white"/>
    <circle cx="80" cy="20" r="1" fill="white"/>
    <circle cx="65" cy="85" r="0.9" fill="white"/>
    <circle cx="30" cy="80" r="0.8" fill="white"/>
    <circle cx="55" cy="35" r="1.2" fill="white"/>
    <circle cx="40" cy="45" r="0.7" fill="white"/>
    <circle cx="75" cy="55" r="1" fill="white"/>
  </g>
  
  <!-- Brightest stars with cross flare -->
  <g>
    <circle cx="33" cy="18" r="1.3" fill="white"/>
    <line x1="33" y1="14" x2="33" y2="22" stroke="white" stroke-width="0.3" opacity="0.7"/>
    <line x1="29" y1="18" x2="37" y2="18" stroke="white" stroke-width="0.3" opacity="0.7"/>
    
    <circle cx="78" cy="78" r="1.2" fill="white"/>
    <line x1="78" y1="74" x2="78" y2="82" stroke="white" stroke-width="0.3" opacity="0.7"/>
    <line x1="74" y1="78" x2="82" y2="78" stroke="white" stroke-width="0.3" opacity="0.7"/>
  </g>
</svg>
