<svg xmlns="http://www.w3.org/2000/svg" viewBox="0 0 300 300">
  <!-- Background -->
  <rect width="300" height="300" fill="#111133" rx="10" ry="10"/>
  
  <!-- Alien Body -->
  <ellipse cx="150" cy="160" rx="70" ry="90" fill="#50FA7B"/>
  
  <!-- Alien Head -->
  <ellipse cx="150" cy="100" rx="50" ry="60" fill="#50FA7B"/>
  
  <!-- Eyes -->
  <path d="M115,85 L145,95 L115,105 Z" fill="#FF5555"/>
  <path d="M185,85 L155,95 L185,105 Z" fill="#FF5555"/>
  
  <!-- Mouth -->
  <path d="M120,130 Q150,115 180,130 L175,140 Q150,128 125,140 Z" fill="#111133"/>
  
  <!-- Teeth -->
  <path d="M130,130 L132,138 L140,130 L142,138 L150,130 L152,138 L160,130 L162,138 L170,130" fill="none" stroke="#FFFFFF" stroke-width="2"/>
  
  <!-- Antennae -->
  <path d="M120,50 Q115,30 110,10" stroke="#50FA7B" stroke-width="4" fill="none"/>
  <path d="M180,50 Q185,30 190,10" stroke="#50FA7B" stroke-width="4" fill="none"/>
  <path d="M110,10 L100,5 L105,15 Z" fill="#FF5555"/>
  <path d="M190,10 L200,5 L195,15 Z" fill="#FF5555"/>
  
  <!-- Arms with Claws -->
  <path d="M100,160 Q50,180 40,130" stroke="#50FA7B" stroke-width="8" fill="none"/>
  <path d="M40,130 L30,125 L35,135 L25,135" stroke="#50FA7B" stroke-width="4" fill="none"/>
  
  <path d="M200,160 Q250,180 260,130" stroke="#50FA7B" stroke-width="8" fill="none"/>
  <path d="M260,130 L270,125 L265,135 L275,135" stroke="#50FA7B" stroke-width="4" fill="none"/>
  
  <!-- Tentacles with Spikes -->
  <path d="M120,245 Q110,280 90,270" stroke="#50FA7B" stroke-width="8" fill="none"/>
  <path d="M90,270 L85,280 L95,275 L90,285" stroke="#50FA7B" stroke-width="3" fill="none"/>
  
  <path d="M150,250 Q150,290 150,280" stroke="#50FA7B" stroke-width="8" fill="none"/>
  <path d="M150,280 L140,290 L150,285 L160,290" stroke="#50FA7B" stroke-width="3" fill="none"/>
  
  <path d="M180,245 Q190,280 210,270" stroke="#50FA7B" stroke-width="8" fill="none"/>
  <path d="M210,270 L215,280 L205,275 L210,285" stroke="#50FA7B" stroke-width="3" fill="none"/>
  
  <!-- Glow Effect -->
  <ellipse cx="150" cy="160" rx="75" ry="95" fill="none" stroke="#FF5555" stroke-width="2" opacity="0.5"/>
  
  <!-- Texture/Patterns -->
  <path d="M120,180 L130,185 L140,180 L150,185 L160,180 L170,185 L180,180" fill="none" stroke="#111133" stroke-width="2"/>
</svg>
