<svg xmlns="http://www.w3.org/2000/svg" viewBox="0 0 800 600">
  <!-- Base background gradient -->
  <defs>
    <radialGradient id="space-gradient" cx="50%" cy="50%" r="70%" fx="50%" fy="50%">
      <stop offset="0%" stop-color="#0f0f3d" />
      <stop offset="50%" stop-color="#090928" />
      <stop offset="100%" stop-color="#030314" />
    </radialGradient>
    
    <!-- Star glow filter -->
    <filter id="star-glow" x="-50%" y="-50%" width="200%" height="200%">
      <feGaussianBlur in="SourceGraphic" stdDeviation="2" result="blur" />
      <feColorMatrix in="blur" mode="matrix" values="1 0 0 0 0  0 1 0 0 0  0 0 1 0 0  0 0 0 18 -7" result="glow" />
      <feComposite in="SourceGraphic" in2="glow" operator="over" />
    </filter>
    
    <!-- Nebula gradient -->
    <radialGradient id="nebula1" cx="30%" cy="40%" r="50%" fx="30%" fy="40%">
      <stop offset="0%" stop-color="#5e17eb" stop-opacity="0.3" />
      <stop offset="100%" stop-color="#5e17eb" stop-opacity="0" />
    </radialGradient>
    
    <radialGradient id="nebula2" cx="70%" cy="60%" r="60%" fx="70%" fy="60%">
      <stop offset="0%" stop-color="#b217eb" stop-opacity="0.2" />
      <stop offset="100%" stop-color="#b217eb" stop-opacity="0" />
    </radialGradient>
    
    <radialGradient id="nebula3" cx="60%" cy="20%" r="40%" fx="60%" fy="20%">
      <stop offset="0%" stop-color="#17a0eb" stop-opacity="0.25" />
      <stop offset="100%" stop-color="#17a0eb" stop-opacity="0" />
    </radialGradient>
    
    <!-- Distant galaxy gradient -->
    <radialGradient id="galaxy1" cx="75%" cy="30%" r="10%" fx="75%" fy="30%">
      <stop offset="0%" stop-color="#fffaed" stop-opacity="0.7" />
      <stop offset="20%" stop-color="#fffaed" stop-opacity="0.5" />
      <stop offset="50%" stop-color="#fffaed" stop-opacity="0.2" />
      <stop offset="100%" stop-color="#fffaed" stop-opacity="0" />
    </radialGradient>
    
    <!-- Gas cloud gradient -->
    <linearGradient id="gas-cloud" x1="0%" y1="0%" x2="100%" y2="100%">
      <stop offset="0%" stop-color="#3a0066" stop-opacity="0.2" />
      <stop offset="50%" stop-color="#660062" stop-opacity="0.1" />
      <stop offset="100%" stop-color="#660029" stop-opacity="0.05" />
    </linearGradient>
  </defs>
  
  <!-- Base background -->
  <rect width="800" height="600" fill="url(#space-gradient)" />
  
  <!-- Distant gas clouds layer -->
  <path d="M0,400 Q200,350 400,450 Q600,500 800,380 L800,600 L0,600 Z" fill="url(#gas-cloud)" opacity="0.4" />
  
  <!-- Nebula layers -->
  <ellipse cx="240" cy="240" rx="300" ry="200" fill="url(#nebula1)" />
  <ellipse cx="560" cy="360" rx="350" ry="250" fill="url(#nebula2)" />
  <ellipse cx="480" cy="120" rx="200" ry="150" fill="url(#nebula3)" />
  
  <!-- Distant galaxy -->
  <ellipse cx="600" cy="180" rx="80" ry="20" fill="url(#galaxy1)" transform="rotate(-15,600,180)" />
  
  <!-- Stars - Small -->
  <g>
    <circle cx="50" cy="80" r="1" fill="white" />
    <circle cx="120" cy="40" r="1" fill="white" />
    <circle cx="200" cy="90" r="1" fill="white" />
    <circle cx="280" cy="60" r="1" fill="white" />
    <circle cx="320" cy="140" r="1" fill="white" />
    <circle cx="400" cy="80" r="1" fill="white" />
    <circle cx="450" cy="50" r="1" fill="white" />
    <circle cx="500" cy="90" r="1" fill="white" />
    <circle cx="580" cy="140" r="1" fill="white" />
    <circle cx="650" cy="70" r="1" fill="white" />
    <circle cx="720" cy="120" r="1" fill="white" />
    <circle cx="760" cy="60" r="1" fill="white" />
    <circle cx="90" cy="170" r="1" fill="white" />
    <circle cx="160" cy="200" r="1" fill="white" />
    <circle cx="230" cy="150" r="1" fill="white" />
    <circle cx="310" cy="220" r="1" fill="white" />
    <circle cx="370" cy="180" r="1" fill="white" />
    <circle cx="440" cy="250" r="1" fill="white" />
    <circle cx="510" cy="190" r="1" fill="white" />
    <circle cx="590" cy="240" r="1" fill="white" />
    <circle cx="660" cy="210" r="1" fill="white" />
    <circle cx="730" cy="190" r="1" fill="white" />
    <circle cx="70" cy="280" r="1" fill="white" />
    <circle cx="140" cy="320" r="1" fill="white" />
    <circle cx="210" cy="270" r="1" fill="white" />
    <circle cx="290" cy="330" r="1" fill="white" />
    <circle cx="350" cy="290" r="1" fill="white" />
    <circle cx="420" cy="340" r="1" fill="white" />
    <circle cx="490" cy="300" r="1" fill="white" />
    <circle cx="550" cy="350" r="1" fill="white" />
    <circle cx="630" cy="310" r="1" fill="white" />
    <circle cx="700" cy="280" r="1" fill="white" />
    <circle cx="760" cy="330" r="1" fill="white" />
    <circle cx="100" cy="400" r="1" fill="white" />
    <circle cx="180" cy="380" r="1" fill="white" />
    <circle cx="240" cy="420" r="1" fill="white" />
    <circle cx="300" cy="390" r="1" fill="white" />
    <circle cx="360" cy="410" r="1" fill="white" />
    <circle cx="430" cy="370" r="1" fill="white" />
    <circle cx="490" cy="430" r="1" fill="white" />
    <circle cx="560" cy="400" r="1" fill="white" />
    <circle cx="620" cy="450" r="1" fill="white" />
    <circle cx="680" cy="380" r="1" fill="white" />
    <circle cx="740" cy="440" r="1" fill="white" />
    <circle cx="80" cy="480" r="1" fill="white" />
    <circle cx="150" cy="500" r="1" fill="white" />
    <circle cx="220" cy="470" r="1" fill="white" />
    <circle cx="280" cy="520" r="1" fill="white" />
    <circle cx="340" cy="480" r="1" fill="white" />
    <circle cx="410" cy="530" r="1" fill="white" />
    <circle cx="470" cy="490" r="1" fill="white" />
    <circle cx="540" cy="510" r="1" fill="white" />
    <circle cx="610" cy="470" r="1" fill="white" />
    <circle cx="670" cy="540" r="1" fill="white" />
    <circle cx="730" cy="500" r="1" fill="white" />
    <circle cx="780" cy="530" r="1" fill="white" />
  </g>
  
  <!-- Stars - Medium with glow -->
  <g filter="url(#star-glow)">
    <circle cx="120" cy="100" r="1.5" fill="white" />
    <circle cx="250" cy="180" r="1.5" fill="white" />
    <circle cx="380" cy="70" r="1.5" fill="white" />
    <circle cx="530" cy="150" r="1.5" fill="white" />
    <circle cx="700" cy="90" r="1.5" fill="white" />
    <circle cx="180" cy="260" r="1.5" fill="white" />
    <circle cx="320" cy="320" r="1.5" fill="white" />
    <circle cx="460" cy="230" r="1.5" fill="white" />
    <circle cx="600" cy="280" r="1.5" fill="white" />
    <circle cx="750" cy="220" r="1.5" fill="white" />
    <circle cx="150" cy="390" r="1.5" fill="white" />
    <circle cx="280" cy="450" r="1.5" fill="white" />
    <circle cx="400" cy="500" r="1.5" fill="white" />
    <circle cx="550" cy="430" r="1.5" fill="white" />
    <circle cx="670" cy="480" r="1.5" fill="white" />
  </g>
  
  <!-- Stars - Large with stronger glow -->
  <g filter="url(#star-glow)">
    <circle cx="80" cy="150" r="2" fill="white" />
    <circle cx="220" cy="80" r="2" fill="white" />
    <circle cx="350" cy="220" r="2" fill="white" />
    <circle cx="490" cy="120" r="2" fill="white" />
    <circle cx="640" cy="160" r="2" fill="white" />
    <circle cx="750" cy="90" r="2" fill="white" />
    <circle cx="130" cy="350" r="2" fill="white" />
    <circle cx="270" cy="420" r="2" fill="white" />
    <circle cx="390" cy="300" r="2" fill="white" />
    <circle cx="520" cy="390" r="2" fill="white" />
    <circle cx="660" cy="340" r="2" fill="white" />
    <circle cx="780" cy="430" r="2" fill="white" />
    <circle cx="200" cy="550" r="2" fill="white" />
    <circle cx="320" cy="500" r="2" fill="white" />
    <circle cx="440" cy="560" r="2" fill="white" />
    <circle cx="580" cy="520" r="2" fill="white" />
    <circle cx="700" cy="570" r="2" fill="white" />
  </g>
  
  <!-- Bright stars -->
  <g filter="url(#star-glow)">
    <circle cx="180" cy="140" r="2.5" fill="#fffce6" />
    <circle cx="420" cy="200" r="2.5" fill="#fffce6" />
    <circle cx="680" cy="120" r="2.5" fill="#fffce6" />
    <circle cx="240" cy="350" r="2.5" fill="#fffce6" />
    <circle cx="520" cy="320" r="2.5" fill="#fffce6" />
    <circle cx="350" cy="480" r="2.5" fill="#fffce6" />
    <circle cx="620" cy="520" r="2.5" fill="#fffce6" />
  </g>
  
  <!-- Distant star clusters -->
  <g opacity="0.8">
    <circle cx="140" cy="220" r="20" fill="url(#galaxy1)" opacity="0.1" />
    <circle cx="640" cy="400" r="30" fill="url(#galaxy1)" opacity="0.1" />
    <circle cx="400" cy="520" r="25" fill="url(#galaxy1)" opacity="0.1" />
  </g>
  
  <!-- Shooting star -->
  <g>
    <line x1="300" y1="100" x2="360" y2="160" stroke="white" stroke-width="1" opacity="0.7" />
    <circle cx="300" cy="100" r="1" fill="white" filter="url(#star-glow)" />
  </g>
</svg>
